<?xml version="1.0" encoding="utf-8"?>
<!-- Generator: Adobe Adobe Illustrator 24.2.0, SVG Export Plug-In . SVG Version: 6.00 Build 0)  -->
<svg version="1.1" id="Layer_1" xmlns="http://www.w3.org/2000/svg" xmlns:xlink="http://www.w3.org/1999/xlink" x="0px" y="0px"
	 width="1728px" height="1296px" viewBox="0 0 1728 1296" style="enable-background:new 0 0 1728 1296;" xml:space="preserve">
<style type="text/css">
	.st0{fill:#FFFFFF;stroke:#F3AF3D;stroke-miterlimit:10;}
	.st1{fill:#F3AF3D;}
	.st2{fill:#8C33B5;}
	.st3{fill:none;stroke:#8C33B5;stroke-width:0;stroke-linecap:round;stroke-linejoin:round;}
	.st4{fill:#55B851;}
	.st5{fill:#D03A20;}
	.st6{fill:#4F85F5;}
</style>
<path class="st1" d="M109.69,84.56c-3.88-2.25-8.53-2.09-12.87-1.98c-2,0.08-4,0.19-6,0.4c2.7,0.36,5.38,0.85,8.04,1.4
	c3.74,0.85,7.34,1.71,9.7,4.45c5.92,6.8,4.32,18.09,1.08,24.51c-4.76,9.41-13.37,12.76-22.6,10.5c-0.03-0.01-0.06-0.02-0.09-0.02
	c-7.6-2.41-12.61-6.43-12.34-16.45c0.37-4.73,3.41-10.35,6.74-14.6c1.42-2.07,3.79-3.07,5.83-4.41c-1.82,0.76-3.76,1.3-5.44,2.35
	c-0.04,0.03-0.08,0.06-0.12,0.09c-2,1.61-3.83,3.45-5.46,5.44c-5.25,5.95-7.8,14.46-4.91,22.09c1.72,5.02,5.95,8.69,10.52,11.13
	c8.01,4.24,18.25,3.88,25.75-1.3C121.13,119.01,124.41,94.11,109.69,84.56z"/>
<path class="st1" d="M93.16,74.52c-0.2-0.15-0.72-0.22-1.72-0.39c-2.25-0.52-4.29-2.16-5.14-4.32c-0.39-1.41-0.25,0.1-0.17,0.71
	c0.19,1.19,0.72,2.31,1.48,3.26c0.39,0.5,0.13,1.23-0.48,1.38c-1.19,0.29-2.35,0.68-3.45,1.2c0.01-0.02,0.01-0.05,0.02-0.07
	c0.7-2.5,1.05-5.07,1.09-7.66c-0.99,3.09-2.21,6.1-3.72,8.97c-0.19,0.48-0.68,0.74-0.88,1.21c-0.41,0.82,0.47,1.78,1.33,1.52
	c0.15-0.12,0.31-0.22,0.46-0.34c0.01,0.02,0.02,0.03,0.03,0.05c0.06-0.06,0.1-0.12,0.16-0.18c2.14-1.46,4.74-2.05,7.23-2.77
	c1.04-0.28,1.78-0.45,2.64-0.52c0.15,0.03,0.3,0.08,0.45,0.1c0.56-0.03,1.21-0.28,1.36-0.88C94.02,75.21,93.65,74.69,93.16,74.52z"
	/>
<path class="st1" d="M112.16,74.95c-0.71-1.44-0.92-1.93-1.37-3.14c-0.35-0.79-0.79-1.78-0.03-2.48c-0.47,0.18-0.73,0.5-0.88,0.89
	c-0.07,0.18-0.21,0.32-0.38,0.42c-2.67,1.61-5.46,2.98-8.32,4.21c-0.2,0.09-0.42,0.18-0.63,0.28c-0.04,0.01-0.07,0.03-0.11,0.04
	c0,0,0,0.01,0,0.01c-0.35,0.18-0.66,0.42-0.76,0.84c-0.24,0.81,0.42,1.67,1.26,1.66c0.91-0.14,1.09-0.22,1.5-0.27
	c0.38-0.03,0.76-0.04,0.9-0.07c1.93,0.77,4.05,1.02,6.09,1.4c0.74,0.1,1.48,0.15,2.23,0.11c0.87,0.2,1.72-0.58,1.62-1.49
	C113.19,76.46,112.53,75.76,112.16,74.95z M107.15,75.21c-0.66-0.19-0.86-1.02-0.35-1.48c1.08-0.99,2.07-2.06,2.99-3.2
	c-0.13,0.57-0.09,1.24-0.07,1.81c0,1.29,0.22,2.55,0.51,3.79c-0.17-0.05-0.37-0.1-0.63-0.18C108.81,75.69,107.97,75.44,107.15,75.21
	z"/>
<path class="st1" d="M128.29,82.06c-2.73-0.28-4.29,0.94-5.17,2.76c-0.31,0.65-1.23,0.65-1.56,0.01c-0.28-0.53-0.57-1.05-0.92-1.53
	c-0.18-0.22-0.32-0.4-0.45-0.58c2.25,0.08,4.54-0.37,6.71-0.94c-2.8-0.19-6.86-0.74-8.72-1.75c-0.46-0.22-0.94-0.55-1.47-0.37
	c-0.91,0.23-1.25,1.47-0.56,2.12c0.39,0.4,0.68,1.09,1.02,1.75c1.24,1.97,1.91,4.26,3.26,6.17c0.4,0.53,1.19,1.67,1.89,2.22
	c0.65,0.99,2.34,0.88,2.75-0.28c0.45-2.11-0.53-4.38,0.08-6.52c0.16-1.22,1.19-1.98,2.21-2.49
	C127.69,82.36,129.32,82.08,128.29,82.06z"/>
<path class="st1" d="M128.4,104.04c-0.03,0.01-0.06,0.01-0.1,0.02c-0.54,0.09-1.02-0.32-1.02-0.87c0-0.35-0.01-0.7-0.02-1.06
	c-0.03-0.65,0.65-1.09,1.24-0.82c1.43,0.65,2.95,1.14,4.37,1.66c-1.62-1.27-3.01-2.31-4.58-3.73c-0.63-0.62-1.43-1.24-1.64-2.05
	c-0.06-0.39-0.27-0.76-0.62-0.95c-0.59-0.34-1.36-0.14-1.71,0.45c-0.35,0.66-0.1,1.43-0.09,2.14c-0.03,2.14-0.08,4.3-0.25,6.44
	c-0.04,0.45-0.12,0.95-0.19,1.55c-0.01,0.08-0.03,0.16-0.07,0.24c-0.13,0.29-0.24,0.6-0.31,0.94c-0.02,0.09-0.03,0.18-0.02,0.27
	c0.03,0.37,0.11,0.74,0.26,1.08c0.03,0.42,0.2,0.86,0.57,1.09c0.99,0.83,2.46-0.1,2.36-1.33c0.02-0.45,0.12-0.96,0.24-1.65
	c0.03-0.17,0.1-0.34,0.23-0.46c0.48-0.49,1.13-0.92,1.86-1.29C129.83,105.25,129.4,103.88,128.4,104.04z"/>
<path class="st1" d="M76.24,83.82c-0.58-0.51-1.33-0.18-1.91,0.13c-1.18,0.46-2.4,0.8-3.65,1c-0.03,0-0.05,0.01-0.08,0.01
	c-1.05,0.09-2.37,0.33-3.25-0.35c0.33,0.77,1.23,0.99,1.93,1.33c0.69,0.21,1.41,0.36,2.15,0.45c0.65,0.08,0.97,0.83,0.59,1.37
	c-0.49,0.69-0.98,1.43-1.42,2.12c-0.3,0.46-0.62,0.92-0.93,1.39c-0.57-2.35-1.5-4.62-2.5-6.8c0.49,3.42,0.87,7.78,0.63,10.83
	c-0.01,0.03-0.01,0.06-0.01,0.09c-0.02,0.25-0.04,0.51-0.07,0.75c0.07,1.03,1.47,1.47,2.16,0.73c0.38-0.39,0.45-1.03,0.64-1.49
	c0.21-0.47,0.65-1.25,1.05-1.74c1.58-1.98,2.69-4.27,4.02-6.42C76.02,86.18,77.45,84.79,76.24,83.82z"/>
<path class="st1" d="M65.4,112.29c-0.09-0.4-0.17-0.81-0.24-1.21c-0.25-2.03-0.44-2.96-0.52-5.13c0-0.06,0-0.12,0.01-0.18
	c0.13-0.81,0.31-1.72-0.03-2.48c-0.66-1.06-2.03-0.54-2.53,0.25c-0.3,0.41-0.48,0.65-1.3,1.67c-1.17,1.37-3.14,2.06-4.9,2.08
	c1.5,0.69,3.38,0.65,4.93,0.13c0.39-0.15,0.75-0.35,1.09-0.58c-0.02,0.42-0.02,0.85-0.01,1.27c0.02,0.62-0.58,1.06-1.17,0.85
	c-0.85-0.3-1.72-0.5-2.54-0.61c1.39,0.77,2.94,1.85,4.08,3.17c0.09,0.11,0.15,0.23,0.19,0.37c0.13,0.53,0.28,1.05,0.44,1.56
	c0.51,1.16,0.83,2.09,1.68,2.48c0.76,0.38,1.75-0.29,1.72-1.13C66.22,113.87,65.89,113.03,65.4,112.29z"/>
<g>
	<path class="st1" d="M75.05,131.63c-1.35-1.44-1.72-1.94-2.83-3.4c-1.22-1.64-2.65-3.09-4.05-4.56c-0.01-0.01-0.03-0.03-0.04-0.04
		c-0.81-0.95-0.53-0.7-1.34-1.83c-0.6-0.63-1.76-0.57-2.26,0.15c-0.41,0.36-0.32,1.38-0.34,1.25c-0.02,0.07-0.08,0.25-0.03,0.15
		c-0.1,0.24-0.39,0.92-0.35,1.37c0.02,1.95,0.96,4.15-0.43,5.83c-0.28,0.41-0.61,0.8-1.03,1.08c0.31-0.06,0.62-0.15,0.9-0.3
		c0.38-0.17,0.71-0.37,1-0.61c0.2-0.16,0.46-0.22,0.71-0.17c2.46,0.46,4.95,1.23,7.03,2.65c0.39,0.34,0.78,0.66,1.16,0.95
		c0.13,0.11,0.26,0.22,0.39,0.34c0.24,0.23,0.49,0.45,0.74,0.63c0,0,0.01,0.01,0.01,0.01c0,0,0,0,0,0c0.26,0.18,0.53,0.33,0.82,0.39
		c0.6,0.12,1.29-0.28,1.49-0.85C77.14,133.42,75.68,132.54,75.05,131.63z M65.55,128.98c0.12-0.27,0.22-0.54,0.31-0.83
		c0.2-0.66,1.08-0.81,1.51-0.27c0.43,0.53,0.84,1.03,1.23,1.56c-0.27-0.35-0.36-0.47-0.26-0.34c0.28,0.39,0.58,0.76,0.87,1.13
		c-0.93-0.08-1.87-0.09-2.81-0.02C65.75,130.26,65.28,129.57,65.55,128.98z"/>
	<path class="st1" d="M72.18,128.19c0.01,0.02,0.02,0.03,0.04,0.05c0.03,0.05,0.07,0.09,0.11,0.14
		C72.28,128.32,72.24,128.26,72.18,128.19z"/>
	<path class="st1" d="M72.44,128.52c-0.04-0.05-0.08-0.1-0.12-0.15C72.48,128.58,72.53,128.63,72.44,128.52z"/>
</g>
<path class="st1" d="M95.06,141.66c-0.28-0.17-0.6-0.21-0.91-0.2c0,0,0,0,0,0c-1.56-0.06-2.87-0.36-4.56-0.68
	c-2.18-0.41-5.17-1.16-6.91-1.68c-0.06-0.02-0.12-0.04-0.18-0.07c-0.31-0.16-1.04-0.53-1.3-0.47c-0.51,0-1,0.28-1.26,0.72
	c-0.66,1.35,0.74,2.65,1.16,3.88c0.7,1.48,1.49,2.98,1.71,4.63c0.06,0.4-0.02,0.82-0.28,1.14c0.1-0.05,0.19-0.12,0.27-0.19
	c0.24-0.24,0.4-0.52,0.51-0.83c0.08-0.22,0.27-0.4,0.48-0.5c2.07-0.97,4.2-1.8,6.39-2.44c0.51-0.16,1.01-0.29,1.51-0.38
	c0.08-0.02,0.17-0.02,0.25-0.01c1.14,0.1,2.31,0.15,3.28-0.39C96.09,143.59,95.97,142.17,95.06,141.66z M84.59,143.2
	c0.38,0.12,0.76,0.23,1.14,0.34c0.7,0.19,0.89,1.08,0.32,1.53c-0.91,0.72-1.77,1.5-2.59,2.28c0.11-0.61,0.1-1.26,0.11-1.84
	c-0.01-0.41-0.04-0.88-0.1-1.37C83.39,143.5,83.99,143.01,84.59,143.2z"/>
<path class="st1" d="M111.16,133.24c-0.09,0.2-0.16,0.41-0.23,0.62c-1.49,1-3.3,2.19-4.88,3.14c-1.22,0.82-2.52,1.53-3.51,2.64
	c-0.76,1.08-0.92,0.94-1.44,2.31c-0.28,0.86,0.42,1.85,1.34,1.83c2.39-0.11,4.96-2.1,7.28-1c0.63,0.29,1.22,0.72,1.63,1.29
	c-0.06-0.27-0.16-0.54-0.28-0.79c-0.61-1.3-1.62-1.99-2.8-2.32c-0.72-0.2-0.89-1.13-0.28-1.56c0.35-0.24,0.7-0.49,1.06-0.75
	c0.55-0.4,1.32-0.05,1.39,0.63c0.08,0.76,0.19,1.52,0.33,2.24c0.24-1.66,0.54-3.39,1.12-5c0.05-0.13,0.13-0.25,0.23-0.35
	c0.65-0.61,1.24-1.25,1.72-1.9C114.39,132.4,112.08,131.54,111.16,133.24z"/>
<path class="st1" d="M126.89,126.81c0.11,0.02,0.21,0.06,0.31,0.11c-0.09-0.14-0.21-0.23-0.34-0.3c-0.29-2.29-0.55-4.61-0.59-7.07
	c0-0.14,0.03-0.27,0.08-0.39c0.54-1.17,0.87-2.42,0.07-3.49c-0.7-0.71-1.9-0.39-2.25,0.51c-0.23,0.57-0.27,1.18-0.22,1.8
	c-0.27,0.49-0.58,0.98-0.85,1.46c-0.97,1.66-1.73,3.44-2.45,5.22c-0.01,0.04-0.03,0.07-0.04,0.11c-0.28,1.15-0.6,2.29-0.93,3.43
	c-0.02,0.06-0.04,0.13-0.05,0.19c0,0,0,0.01,0,0.01c0,0,0,0,0,0c-0.15,0.87,0.67,1.77,1.69,0.99c0.11-0.1,0.17-0.22,0.22-0.35
	c0.84-0.82,1.93-1.32,3.05-1.64c0.72-0.16,1.52-0.71,2.26-0.58c0.01,0.02,0.02,0.04,0.03,0.06
	C126.9,126.85,126.9,126.83,126.89,126.81z M125.45,126.44c-0.97-0.02-1.95,0.01-2.89,0.19c0.12-0.29,0.23-0.56,0.33-0.81
	c0.27-0.57,0.65-1.29,1.07-2.07c0.35-0.66,1.32-0.6,1.59,0.1c0.36,0.92,0.76,1.83,1.21,2.72
	C126.36,126.42,125.87,126.47,125.45,126.44z"/>
<path class="st2" d="M204.94,113.51c-5.17-1.21-10.3-2.68-15.33-4.39c-1.56-0.61-3.06-1.81-4.6-2.65c-1.7-0.99-3.44-1.94-4.94-3.22
	c1.38,2.09,3.23,3.8,4.96,5.6c0.01,0.01,0.02,0.02,0.03,0.04c1.98,2.42,4.63,4.11,7.38,5.55c0.76,0.4,1.52,0.82,2.27,1.23
	c0.61,0.34,0.61,1.22-0.01,1.54c-0.74,0.4-1.48,0.8-2.21,1.19c-2.88,1.69-5.85,3.25-8.6,5.15c-2.1,1.6-4.11,3.31-6.08,5.05
	c-0.66,0.58-1.66-0.05-1.42-0.89c0.54-1.91,1.05-3.82,1.5-5.74c0.01-0.03,0.01-0.06,0.02-0.09c0.61-4.33,1-8.7,1.26-13.07
	c0.06-1.03-1.39-1.31-1.71-0.33c-1.44,4.29-2.96,8.73-4.11,11.87c-0.01,0.03-0.02,0.06-0.04,0.09c-2.66,5.38-5.51,10.66-8.15,16.05
	c-1.39,3.02-1.25,3.19-3.51,7.38c-0.01,0.03-0.03,0.06-0.05,0.08c-1.89,2.76-2.1,3.22-2.47,4.26c-0.01,0.02-0.02,0.04-0.02,0.06
	c0,0,0.01,0,0.01,0c-1.14,3.79,3.24,7.17,6.65,5.11c0.57-0.32,1.02-0.77,1.4-1.28c1.27-1.36,2.54-2.73,3.87-4.04
	c3.27-3.33,6.78-6.37,10.39-9.32c0.02-0.02,0.05-0.04,0.07-0.06c5.28-5.4,8.93-9.23,13.24-12.2c-0.28,0.21-0.56,0.43-0.84,0.65
	c3.57-2.7,3.92-3.13,8.39-6.16c0.44-0.3,1.87-1.02,2.41-1.3c0.04-0.02,0.08-0.04,0.12-0.05c0.63-0.21,1.27-0.41,1.73-0.92
	C208.25,117.06,207.21,114.05,204.94,113.51z"/>
<path class="st2" d="M182.97,85.45c0.73,2.31,1.3,4.67,2.14,6.94c0.81,2.07,1.9,4.48,0.66,6.6
	C189.99,95.51,185.79,88.6,182.97,85.45z"/>
<path class="st2" d="M195.31,90.29c-0.39-2.5-1.36-4.98-2.74-7.18c-0.54-0.86-1.86-0.27-1.59,0.71c1.4,4.99,2.28,10.23,1.43,15.19
	c-0.04,0.33-0.21,1.36-0.28,2.07c-0.04,0.5-0.17,0.89,0.21,0.15C194.46,97.98,195.9,94.25,195.31,90.29z"/>
<path class="st2" d="M206.08,84.37c-3.3,3.15-5.41,7.2-7.01,11.44c-0.37,0.97,0.97,1.67,1.55,0.81c2.43-3.53,4.71-7.18,7.13-10.72
	c0.43-0.64,0.86-1.35,1.31-2.06c0.55-0.88-0.62-1.83-1.36-1.1C207.14,83.28,206.61,83.83,206.08,84.37z"/>
<path class="st2" d="M206.94,96.77c-0.6,0.82,0.41,1.84,1.22,1.24c1.48-1.09,2.99-2.14,4.43-3.27c2.05-1.6,4.08-3.25,6.19-4.79
	c0.83-0.61,0.14-1.87-0.83-1.53C213.57,89.99,209.69,92.99,206.94,96.77z"/>
<path class="st2" d="M207.35,105.71c5.19-1.02,9.85-2.7,14.72-4.72C216.81,100.5,211.42,102.38,207.35,105.71z"/>
<path class="st2" d="M174.2,87.34c-0.53-0.63-1.43-0.9-1.94-1.52c0.02-0.07,0.06-0.15,0.14-0.22c0.4-0.47,0.95-0.8,1.31-1.32
	c0.34-0.44,0.51-1.03,0.36-1.58c-0.07-0.31-0.51-1.65-0.42-0.83c0.01,0.62,0.06,1.36-0.49,1.78c-0.67,0.56-1.6,0.8-2.08,1.57
	c-0.95,1.72,1.4,2.36,2.39,3.3c0.08,0.07,0.14,0.16,0.19,0.25c0.67,1.3,0.2,2.87,0.13,4.27C174.62,91.34,175.77,88.96,174.2,87.34z"
	/>
<path class="st2" d="M185.74,69.18c-0.01,0.84,0.71,1.6,0.81,2.4c0.05,0.41-0.17,0.83-0.57,0.94c-0.27,0.08-0.58,0.07-0.86,0.09
	c-4.18,0.16-3.66,2.63-4.05,5.87c0.6-1.22,0.84-2.6,1.48-3.79c0.05-0.1,0.12-0.19,0.2-0.26c0.59-0.51,1.47-0.56,2.21-0.69
	c0.83-0.08,1.8-0.19,2.26-0.98C188.03,71.33,186.33,70.3,185.74,69.18z"/>
<path class="st2" d="M201.65,66.03c0.04-0.01,0.08-0.03,0.11-0.04c0.16-0.13,0.02-0.28-0.15-0.24c-0.56,0.02-0.51,0.71-0.63,1.11
	c-0.27,1.21-0.79,2.37-0.89,3.62c0.18,2.33-0.76,4.44-1.91,6.41c1.27-1.09,2.44-2.39,3-3.99c0.29-0.96,0.14-1.98,0.2-2.97
	c0.12-1.22,0.31-2.44,0.16-3.66C201.5,66.17,201.56,66.09,201.65,66.03z"/>
<path class="st2" d="M222.3,72.72c-0.69,0.82-1.92,0.98-2.77,1.64c-0.96,0.59-2.11,1.14-2.07,2.39c0,0.1,0,0.2-0.03,0.3
	c-0.54,1.82-1.66,3.42-2.8,4.92c2.07-1.18,3.88-3.1,4.35-5.42c0.04-0.18,0.12-0.35,0.25-0.47c0.98-0.93,2.09-1.73,3.01-2.71
	c0.31-0.3,0.18-0.78,0.46-1.08C222.49,72.34,222.4,72.54,222.3,72.72z"/>
<path class="st2" d="M226.09,92.9c-2.17-0.49-4.31,0.56-6.07,1.73c1.77-0.39,3.59-0.88,5.42-0.59c2.14,0.67,4.43,0.87,6.4-0.39
	C229.85,94.07,227.95,93.59,226.09,92.9z"/>
<path class="st2" d="M231.69,110.43c-0.02-0.01-0.03-0.02-0.05-0.02c-1.36-0.48-2.46-1.51-3.86-1.89c-1.5-0.57-2.79,0.41-4.09,1.01
	c-1.33,0.59-2.65-0.09-3.97-0.27c-1.53-0.16-3.08,0.23-4.46,0.89c1.47-0.1,2.98-0.04,4.37,0.48c0.04,0.02,0.08,0.03,0.12,0.05
	c1.32,0.69,2.79,1.24,4.29,0.78c0.86-0.19,1.53-0.77,2.26-1.2c0.08-0.05,0.17-0.09,0.26-0.11c1.86-0.48,3.86,1.09,5.89,0.64
	C233.15,110.75,231.98,110.58,231.69,110.43z"/>
<path class="st3" d="M199.38,84.18c-0.05,0.07-0.11,0.13-0.18,0.18"/>
<path class="st4" d="M422.56,117.2c-5.01,2.2-10,4.64-14.02,8.43c-4.07,4.08-7.25,9.04-9.48,14.36c-0.38,0.91,0.82,1.67,1.47,0.92
	c6.83-7.7,13.91-15.18,21.4-22.24c0.71-0.69,1.37-1.44,2.1-2.1C423.53,116.75,423.05,116.97,422.56,117.2z"/>
<path class="st4" d="M414.12,133.14c-2.46,3.31-5.44,6.84-9.02,9.41c-0.93,0.77-1.86,1.53-2.72,2.36c0.44-0.2,0.87-0.42,1.31-0.62
	c3.23-1.35,6.52-2.64,9.18-4.98c4.76-4.08,8.33-9.48,10.45-15.38c0.35-0.96-0.95-1.63-1.54-0.8
	C419.35,126.56,416.72,129.84,414.12,133.14z"/>
<path class="st4" d="M394.75,145.8c-4.31-3.13-6.95-7.62-9.35-12.29c-1.75-3.22-3.57-6.4-5.32-9.62c-0.48-0.88-1.82-0.4-1.64,0.58
	c1.89,10.06,6.95,20.68,17.71,22.59c0.38,0.04,0.76,0.03,1.14,0.04C396.36,146.85,395.51,146.38,394.75,145.8z"/>
<path class="st4" d="M389.48,125.61c-1.27-1.5-2.78-2.7-4.41-3.73c-0.85-0.53-1.78,0.57-1.12,1.33c1.94,2.21,3.77,4.5,5.51,6.88
	c1.15,1.5,2.38,3,3.45,4.59c0.57,0.84,1.89,0.22,1.57-0.75C393.46,130.85,391.59,128,389.48,125.61z"/>
<path class="st4" d="M405.46,101.42c-8.52,8.88-10.01,20.75-9.17,32.44c0.07,1.01,1.52,1.11,1.74,0.12c1-4.45,1.91-8.92,2.72-13.41
	c0.96-6.38,2.53-12.63,5.09-18.56c0.24-0.62,0.5-1.23,0.74-1.85C406.21,100.58,405.83,101,405.46,101.42z"/>
<path class="st4" d="M415.88,91.28c-1.02-0.97-2.63-1.14-3.89-0.57c-0.84,0.38-3.25,1.7-1.03,0.95c1.12-0.25,2.39-0.48,3.41,0.19
	c0.62,0.35,0.88,0.9,0.58,1.57c-0.72,1.28-2.25,1.86-3.6,2.21c-1.29,0.35-2.66,0.44-3.75-0.46c0.39,0.38,0.7,0.9,1.22,1.11
	c2.34,0.77,5.32,0.38,7.05-1.47C416.72,93.87,416.91,92.17,415.88,91.28z"/>
<path class="st4" d="M394.62,96.2c-0.61-0.15-1.04-0.24-1.25-0.76c-0.11-0.33-0.19-0.48-0.12-0.8c0.44-1.94,2.18-3.48,4.01-4.3
	c0.56-0.12,1.02,0.28,1.31,0.71c-0.06-0.22-0.12-0.45-0.22-0.66c-1.19-2.01-5.31,0.43-6.23,1.85c-1.22,1.46-1.44,3.85,0.24,5.06
	c2.6,1.52,5.81,0,7.84-1.83C398.42,96.1,396.52,96.68,394.62,96.2z"/>
<path class="st4" d="M409.72,78.17c-1.47-1.41-3.64-0.27-4.78,1.02c-0.97,1.14-1.78,2.45-2.32,3.86c-0.38,0.99,1,1.67,1.57,0.78
	c1.03-1.6,2.29-3.07,3.59-4.24c1.68-1.14,1.79,2.12,2.16,3.1c0.15,0.88,0.17-0.19,0.26-0.53C410.38,80.86,410.72,79.21,409.72,78.17
	z"/>
<path class="st4" d="M426.27,76.59c-2.24-0.75-4.38,0.55-6.13,1.84c-1.08,0.74-2.09,1.57-3.02,2.48c-0.75,0.73,0.16,1.91,1.06,1.39
	c1.21-0.7,2.45-1.34,3.7-1.96c1.22-0.63,2.51-1.47,3.7-1.24c0.48,0.08,0.77,0.4,0.97,0.9c0.42,1.36-0.34,2.84-1.54,3.53
	c-0.55,0.35-1.09,0.71-1.61,1.1c0.95-0.26,1.95-0.36,2.86-0.74c1.26-0.54,2.14-1.85,2.38-3.18
	C428.98,79.01,427.98,77.09,426.27,76.59z"/>
<path class="st4" d="M426,94.68c-1.38-1.63-3.32-2.75-5.47-2.89c2.04,1,3.53,2.71,4.88,4.5c1.56,1.77-0.64,2.48-2.16,2.47
	c-0.07,0.02-0.33-0.05-0.2,0.02c1.04,0.47,2.45,0.67,3.44-0.03C427.89,97.61,427.05,95.75,426,94.68z"/>
<path class="st4" d="M419.65,101.35c-1.02,1.17-1.65,2.85-3,3.67c-0.15,0.09-0.33,0.13-0.5,0.12c-2.51-0.13-4.38-2.17-6.1-3.8
	c1.72,4.71,7.55,8.62,9.4,1.69c0.25-0.76,0.59-1.54,0.55-2.36C419.92,100.91,419.79,101.14,419.65,101.35z"/>
<path class="st5" d="M464.75,124.8c-0.04-0.04-0.07-0.07-0.1-0.11c-2.12-2.58-3.67-6.96-5.06-10.49c-0.44-1.25-0.75-2.53-1.04-3.82
	c-0.07,0.56-0.16,1.09-0.21,1.63c-0.31,2.83,0,5.7,0.56,8.48c0.55,2.77,1.47,5.68,3.62,7.64c3.44,2.89,7.87,4.33,12.35,4.71
	c1,0.08,1.31-1.31,0.38-1.69C471.32,129.53,467.57,127.45,464.75,124.8z"/>
<path class="st5" d="M474.32,108.97c-1.6-2.36-2.81-4.96-4.11-7.49c-0.67-1.07-1.06-2.89-1.76-3.71c-1.34-0.83-1.85,0.95-2.25,1.99
	c-0.61,2.19,0.34,4.42,0.84,6.55c0.59,2.05,1.28,4.07,2,6.08c0.24,0.68-0.4,1.35-1.09,1.13c-2.38-0.74-4.81-1.33-7.31-1.47
	c3.28,1.52,6.81,2.61,10.53,2.56c-0.32-0.11-0.63-0.22-0.95-0.33c-0.34-0.12-0.57-0.44-0.59-0.79c-0.18-3.83-0.6-6.9-1.14-10.34
	c-0.08-0.37-0.14-0.78-0.19-1.2c0.09,0.14,0.18,0.28,0.26,0.42c1.48,2.22,3.16,4.31,5.11,6.14
	C473.84,108.66,474.58,109.28,474.32,108.97z"/>
<path class="st5" d="M484.08,100.42c-0.01-0.03-0.02-0.06-0.03-0.09c-1.33-5.04-0.9-10.36-0.88-15.52c-0.04-0.82,0.05-1.59,0.1-2.08
	c0.35-0.61,0.42-1.36,0.02-2.01c-3.13-3.87-6.13,4.05-7.12,6.4c-0.01,0.03-0.02,0.05-0.03,0.08c-1.51,4.67-1.67,9.59-1.27,14.47
	c0.08,1.03,1.58,1.09,1.75,0.06c0.57-3.59,1.25-7.15,2.35-10.51c0.28-0.86,1.52-0.79,1.7,0.09c0.67,3.34,1.7,6.76,3.27,9.3
	C484.59,101.55,484.32,101.12,484.08,100.42z"/>
<path class="st5" d="M496.31,84.07c-1.2-1.74-3.26,0.05-4.32,1.07c-1.99,1.95-3.45,4.42-4.41,7.08c-0.36,1.01,1.02,1.67,1.58,0.76
	c0.74-1.2,1.55-2.35,2.43-3.4c0.55-0.67,1.63-0.21,1.55,0.65c-0.29,3.21-0.49,6.42-0.71,9.63c-0.08,0.63,0.13-0.18,0.24-0.4
	c1.29-3.5,2.2-7.13,3.05-10.76c0.22-1.08,0.45-2.15,0.67-3.23C496.5,85,496.59,84.49,496.31,84.07z"/>
<path class="st5" d="M499.82,95.1c-0.14-0.05-0.3-0.05-0.44-0.01c-0.65,0.18-0.99,0.69-1.61,1.11c-1.98,1.63-3.88,3.37-5.54,5.32
	c1.41-0.94,2.87-1.82,4.32-2.71c0.74-0.45,1.61,0.32,1.26,1.12c-0.77,1.74-1.85,3.39-2.64,5.06c-0.41,0.78-0.78,1.59-1.16,2.39
	c1.77-1.98,3.66-3.89,5.07-6.15C499.86,100.1,501.7,95.78,499.82,95.1z"/>
<path class="st5" d="M505.79,104.66c-1.37-0.95-3.03-0.18-4.32,0.52c-0.5,0.26-0.99,0.53-1.48,0.79c-0.92,0.5-0.35,1.91,0.65,1.62
	c1.09-0.31,2.17-0.6,3.24-0.87c0.15,0.07,0.13,0.02,0.18-0.02c0.04-0.01,0.06,0.01,0.08,0.03c-3.26,3.78-6.06,7.78-9.09,12.08
	c-0.61,0.86,0.53,1.87,1.31,1.16c3.61-3.29,7.57-7.7,9.98-11.39c0.06-0.09,0.1-0.15,0.14-0.2
	C507.79,107.61,506.91,105.43,505.79,104.66z"/>
<path class="st5" d="M493.56,139.63c-1.1-1.75-2.2-3.5-3.26-5.27c-0.54-0.9-1.89-0.27-1.59,0.72c0.72,2.37,1.83,4.62,3.4,6.58
	c0.65,0.93,1.41,1.75,2.28,2.43c0.82,0.65,1.87-0.41,1.23-1.24C494.84,141.85,494.18,140.75,493.56,139.63z"/>
<path class="st6" d="M337.25,106.72c-2.74-0.71-5.61-0.34-8.42-0.45c-6.38-0.17-12.73,0.43-19.04,1.35
	c-0.79,0.12-1.31-0.79-0.81-1.42c1.55-1.93,3.06-3.89,4.55-5.87c3.08-4.09,6.01-8.48,9.07-12.57c0.59-0.79-0.38-1.81-1.2-1.25
	c-4.57,3.14-8.8,6.82-13,10.43c-2.68,2.32-5.33,4.7-7.92,7.13c-0.52,0.49-1.37,0.18-1.46-0.53c-0.93-7.49-2.13-14.88-3.26-22.3
	c-0.15-0.98-1.56-1-1.74-0.03c-1.35,7.46-2.06,15.01-2.21,22.58c-0.01,0.72-0.82,1.12-1.4,0.69c-2.93-2.19-5.95-4.4-9.18-6.77
	c-3.13-2.33-6.16-4.24-9.01-6.28c-0.81-0.58-1.81,0.44-1.22,1.23c2.21,2.97,4.71,5.73,7.07,8.57c3.05,3.61,6.24,7.09,9.63,10.38
	c0.46,0.45,0.3,1.22-0.3,1.44c-3.42,1.26-6.82,2.6-10.28,3.76c-4.18,1.32-8.33,2.96-12.61,3.99c-0.97,0.23-0.85,1.64,0.14,1.73
	c2.92,0.25,5.89,0.13,8.81,0.03c3-0.1,5.97-0.44,8.92-0.92c0.61,1.02,0.23,0.37,0.84,1.39c-3.54,4.6-6.52,9.6-9.59,14.52
	c-0.87,1.3-1.66,2.7-2.52,4.03c-0.54,0.83,0.51,1.77,1.29,1.16c1.83-1.42,3.52-3.07,5.26-4.52c4.75-4.33,9.26-8.9,13.99-13.26
	c0.36-0.33,0.7-0.67,1.06-1c1.11,10.28,3.18,20.47,6.06,30.37c0.13,0.56,0.26,1.12,0.39,1.67c0.14-1.05,0.26-2.09,0.3-3.15
	c0.37-6.26,0.74-12.53,1.05-18.79c0.16-3.25,0.19-6.45,0.13-9.61c-0.01-0.73,0.8-1.15,1.39-0.72c8.36,6.19,17.3,11.59,26.32,16.77
	c0.69,0.4,1.91,1.29,1.9,1.12c-4.09-5.21-8.73-9.96-13.43-14.63c-3.61-3.57-6.95-6.67-10.17-9.5c-0.52-0.46-0.33-1.31,0.34-1.5
	c9.79-2.72,19.44-5.99,29.19-8.81C336.93,106.95,339.09,107.18,337.25,106.72z"/>
</svg>
